<mxfile host="Electron" agent="Mozilla/5.0 (Windows NT 10.0; Win64; x64) AppleWebKit/537.36 (KHTML, like Gecko) draw.io/26.0.16 Chrome/132.0.6834.196 Electron/34.2.0 Safari/537.36" version="26.0.16" pages="2">
  <diagram name="Página-1" id="cdmVeYlQecLDn4oGMoVJ">
    <mxGraphModel dx="1050" dy="629" grid="1" gridSize="10" guides="1" tooltips="1" connect="1" arrows="1" fold="1" page="1" pageScale="1" pageWidth="827" pageHeight="1169" math="0" shadow="0">
      <root>
        <mxCell id="0" />
        <mxCell id="1" parent="0" />
        <mxCell id="-T2w3EF-jYKc5fvGyvIC-1" value="Página da web" style="swimlane;whiteSpace=wrap;html=1;" vertex="1" parent="1">
          <mxGeometry x="510" y="90" width="260" height="330" as="geometry" />
        </mxCell>
        <mxCell id="-T2w3EF-jYKc5fvGyvIC-2" value="&lt;font style=&quot;font-size: 30px;&quot;&gt;Informações&lt;/font&gt;" style="text;html=1;align=center;verticalAlign=middle;resizable=0;points=[];autosize=1;strokeColor=none;fillColor=none;" vertex="1" parent="-T2w3EF-jYKc5fvGyvIC-1">
          <mxGeometry x="35" y="140" width="190" height="50" as="geometry" />
        </mxCell>
        <mxCell id="-T2w3EF-jYKc5fvGyvIC-3" value="" style="fontColor=#0066CC;verticalAlign=top;verticalLabelPosition=bottom;labelPosition=center;align=center;html=1;outlineConnect=0;fillColor=#CCCCCC;strokeColor=#6881B3;gradientColor=none;gradientDirection=north;strokeWidth=2;shape=mxgraph.networks.pc;" vertex="1" parent="1">
          <mxGeometry x="140" y="230" width="100" height="70" as="geometry" />
        </mxCell>
        <mxCell id="-T2w3EF-jYKc5fvGyvIC-4" value="" style="endArrow=classic;html=1;rounded=0;exitX=0.5;exitY=0.07;exitDx=0;exitDy=0;exitPerimeter=0;entryX=0;entryY=0.25;entryDx=0;entryDy=0;" edge="1" parent="1" source="-T2w3EF-jYKc5fvGyvIC-3" target="-T2w3EF-jYKc5fvGyvIC-1">
          <mxGeometry width="50" height="50" relative="1" as="geometry">
            <mxPoint x="350" y="180" as="sourcePoint" />
            <mxPoint x="400" y="130" as="targetPoint" />
            <Array as="points">
              <mxPoint x="330" y="140" />
            </Array>
          </mxGeometry>
        </mxCell>
        <mxCell id="-T2w3EF-jYKc5fvGyvIC-5" value="" style="endArrow=classic;html=1;rounded=0;exitX=0;exitY=0.75;exitDx=0;exitDy=0;entryX=0.5;entryY=1;entryDx=0;entryDy=0;entryPerimeter=0;" edge="1" parent="1" source="-T2w3EF-jYKc5fvGyvIC-1" target="-T2w3EF-jYKc5fvGyvIC-3">
          <mxGeometry width="50" height="50" relative="1" as="geometry">
            <mxPoint x="250" y="450" as="sourcePoint" />
            <mxPoint x="300" y="400" as="targetPoint" />
            <Array as="points">
              <mxPoint x="340" y="410" />
            </Array>
          </mxGeometry>
        </mxCell>
        <mxCell id="-T2w3EF-jYKc5fvGyvIC-6" value="&lt;font style=&quot;font-size: 30px;&quot;&gt;SCRAP&lt;/font&gt;" style="text;html=1;align=center;verticalAlign=middle;resizable=0;points=[];autosize=1;strokeColor=none;fillColor=none;" vertex="1" parent="1">
          <mxGeometry x="310" y="240" width="130" height="50" as="geometry" />
        </mxCell>
      </root>
    </mxGraphModel>
  </diagram>
  <diagram id="BWqTOKRFvt0SXWbZ2VkT" name="Página-2">
    <mxGraphModel dx="1050" dy="629" grid="1" gridSize="10" guides="1" tooltips="1" connect="1" arrows="1" fold="1" page="1" pageScale="1" pageWidth="827" pageHeight="1169" math="0" shadow="0">
      <root>
        <mxCell id="0" />
        <mxCell id="1" parent="0" />
        <mxCell id="P2_1LmSXVWydRNsXwVsI-1" value="&lt;b&gt;Arquivos de scrap&lt;/b&gt;" style="shape=datastore;whiteSpace=wrap;html=1;" vertex="1" parent="1">
          <mxGeometry x="234" y="250" width="180" height="200" as="geometry" />
        </mxCell>
        <mxCell id="P2_1LmSXVWydRNsXwVsI-2" value="Relatórios" style="ellipse;whiteSpace=wrap;html=1;" vertex="1" parent="1">
          <mxGeometry x="560" y="140" width="120" height="80" as="geometry" />
        </mxCell>
        <mxCell id="P2_1LmSXVWydRNsXwVsI-3" value="Avisos" style="ellipse;whiteSpace=wrap;html=1;" vertex="1" parent="1">
          <mxGeometry x="560" y="270" width="120" height="80" as="geometry" />
        </mxCell>
        <mxCell id="P2_1LmSXVWydRNsXwVsI-4" value="" style="endArrow=classic;html=1;rounded=0;entryX=0;entryY=0.5;entryDx=0;entryDy=0;exitX=1;exitY=0.3;exitDx=0;exitDy=0;" edge="1" parent="1" source="P2_1LmSXVWydRNsXwVsI-1" target="P2_1LmSXVWydRNsXwVsI-2">
          <mxGeometry width="50" height="50" relative="1" as="geometry">
            <mxPoint x="370" y="220" as="sourcePoint" />
            <mxPoint x="420" y="170" as="targetPoint" />
          </mxGeometry>
        </mxCell>
        <mxCell id="P2_1LmSXVWydRNsXwVsI-5" value="" style="endArrow=classic;html=1;rounded=0;exitX=1;exitY=0.5;exitDx=0;exitDy=0;" edge="1" parent="1" source="P2_1LmSXVWydRNsXwVsI-1" target="P2_1LmSXVWydRNsXwVsI-3">
          <mxGeometry width="50" height="50" relative="1" as="geometry">
            <mxPoint x="510" y="520" as="sourcePoint" />
            <mxPoint x="560" y="470" as="targetPoint" />
          </mxGeometry>
        </mxCell>
        <mxCell id="P2_1LmSXVWydRNsXwVsI-6" value="Monitoramento" style="ellipse;whiteSpace=wrap;html=1;" vertex="1" parent="1">
          <mxGeometry x="560" y="400" width="120" height="80" as="geometry" />
        </mxCell>
        <mxCell id="P2_1LmSXVWydRNsXwVsI-7" value="" style="endArrow=classic;html=1;rounded=0;exitX=1;exitY=0.7;exitDx=0;exitDy=0;entryX=0;entryY=0.5;entryDx=0;entryDy=0;" edge="1" parent="1" source="P2_1LmSXVWydRNsXwVsI-1" target="P2_1LmSXVWydRNsXwVsI-6">
          <mxGeometry width="50" height="50" relative="1" as="geometry">
            <mxPoint x="300" y="620" as="sourcePoint" />
            <mxPoint x="350" y="570" as="targetPoint" />
          </mxGeometry>
        </mxCell>
      </root>
    </mxGraphModel>
  </diagram>
</mxfile>
